<svg width="24" height="24" viewBox="0 0 24 24" fill="currentColor"><path d="M577.39,150.392a7.256,7.256,0,0,1-.261.81c-.193.452-.412.895-.649,1.325a.985.985,0,0,0,.008,1.037c.237.43.443.879.653,1.323a1.925,1.925,0,0,1-.881,2.707c-.461.253-.924.506-1.4.738a.886.886,0,0,0-.515.716c-.084.543-.173,1.085-.284,1.623a1.887,1.887,0,0,1-2.2,1.6c-.546-.062-1.09-.14-1.632-.226a.911.911,0,0,0-.867.287c-.356.372-.734.723-1.109,1.077a1.918,1.918,0,0,1-2.845,0c-.374-.354-.752-.706-1.108-1.078a.909.909,0,0,0-.866-.287c-.542.087-1.087.159-1.632.228a1.889,1.889,0,0,1-2.189-1.562c-.112-.538-.2-1.08-.284-1.623a.928.928,0,0,0-.55-.767c-.474-.228-.936-.483-1.4-.739a1.915,1.915,0,0,1-.866-2.659c.212-.456.422-.916.667-1.355a1,1,0,0,0-.008-1.067c-.233-.42-.431-.859-.638-1.293a1.933,1.933,0,0,1,.888-2.732c.452-.247.9-.5,1.366-.722a.906.906,0,0,0,.533-.741c.081-.531.17-1.062.277-1.589a1.891,1.891,0,0,1,2.216-1.611c.534.061,1.067.137,1.6.223a.933.933,0,0,0,.9-.3c.347-.365.718-.707,1.083-1.054a1.924,1.924,0,0,1,2.871,0c.374.355.751.707,1.109,1.077a.888.888,0,0,0,.837.278c.565-.087,1.132-.171,1.7-.233a1.876,1.876,0,0,1,2.127,1.516c.125.558.211,1.125.3,1.69a.908.908,0,0,0,.533.741c.483.236.954.5,1.427.754A2,2,0,0,1,577.39,150.392Zm-15.752-5.332a.655.655,0,0,0-.777.572c-.1.54-.2,1.08-.284,1.623a2.032,2.032,0,0,1-1.152,1.6c-.481.241-.953.5-1.426.755a.658.658,0,0,0-.329,1q.36.76.737,1.512a1.95,1.95,0,0,1,0,1.846c-.247.491-.485.985-.722,1.481a.666.666,0,0,0,.328,1.024c.513.278,1.032.545,1.544.825a1.852,1.852,0,0,1,.98,1.337c.107.574.206,1.149.312,1.722.1.544.334.718.888.65.522-.064,1.045-.133,1.564-.221a2.019,2.019,0,0,1,1.849.594q.564.553,1.135,1.1a.692.692,0,0,0,1.128-.01c.4-.381.788-.766,1.185-1.146a1.944,1.944,0,0,1,1.732-.545c.565.089,1.132.172,1.7.236a.64.64,0,0,0,.8-.6c.1-.529.195-1.058.278-1.589a2.033,2.033,0,0,1,1.153-1.6c.481-.241.953-.5,1.426-.755a.658.658,0,0,0,.327-1c-.231-.486-.464-.971-.709-1.449a2.005,2.005,0,0,1-.009-1.941c.246-.478.477-.964.708-1.449a.666.666,0,0,0-.329-1.023c-.493-.267-.991-.525-1.485-.789a1.915,1.915,0,0,1-1.047-1.407c-.1-.563-.2-1.127-.3-1.689-.1-.542-.334-.717-.889-.648-.534.066-1.067.139-1.6.226a1.968,1.968,0,0,1-1.788-.574q-.589-.577-1.185-1.147a.679.679,0,0,0-1.079.008c-.406.388-.8.782-1.21,1.17a1.944,1.944,0,0,1-1.732.546C562.766,145.21,562.175,145.135,561.638,145.06Z" transform="translate(-556.294 -142.039)"></path><path d="M583.841,180.613c-.193-.147-.429-.24-.5-.4a1.1,1.1,0,0,1,.006-.642c.026-.116.169-.209.266-.306l7.988-7.99c.04-.04.08-.082.122-.121a.649.649,0,0,1,.97-.058.638.638,0,0,1-.065.944q-4.125,4.131-8.259,8.253A2.891,2.891,0,0,1,583.841,180.613Z" transform="translate(-577.507 -164.716)"></path><path d="M587.451,169.066a2.327,2.327,0,1,1-2.315-2.327A2.343,2.343,0,0,1,587.451,169.066Zm-3.375.012a1.048,1.048,0,1,0,1.026-1.064A1.047,1.047,0,0,0,584.076,169.078Z" transform="translate(-577.117 -161.447)"></path><path d="M608.806,202.955a2.324,2.324,0,1,1,2.333-2.309A2.339,2.339,0,0,1,608.806,202.955Zm1.054-2.333a1.048,1.048,0,1,0-1.03,1.06A1.043,1.043,0,0,0,609.86,200.622Z" transform="translate(-595.729 -186.249)"></path></svg>