<svg width="24" height="24" viewBox="0 0 24 24" fill="currentColor"><path d="M185.013,322.3c.353,0,.66,0,.968,0a1.506,1.506,0,0,1,1.6,1.592q.006,7.376,0,14.753a1.5,1.5,0,0,1-1.593,1.594q-6.465,0-12.93,0a1.5,1.5,0,0,1-1.6-1.592q0-7.686,0-15.372a1.493,1.493,0,0,1,1.128-1.537q5.106-1.685,10.211-3.369a1.54,1.54,0,0,1,2.211,1.611C185.013,320.733,185.013,321.488,185.013,322.3Zm-12.258,8.974h0q0,3.611,0,7.221c0,.431.017.447.444.447h12.655c.421,0,.439-.019.44-.452q0-7.187,0-14.374c0-.515-.008-.522-.514-.522l-12.552,0c-.449,0-.472.022-.472.456Q172.754,327.661,172.754,331.271Zm10.961-8.989c0-.787,0-1.54,0-2.293,0-.5-.062-.543-.543-.385l-7.137,2.354c-.264.087-.526.182-.789.273l.014.051Z" transform="translate(-171.46 -318.239)"></path><path d="M190.917,357h-4.025a2.43,2.43,0,0,1-.343-.013.65.65,0,0,1-.575-.628.624.624,0,0,1,.559-.635c.212-.019.281-.094.332-.294a4.114,4.114,0,0,1,3.1-3.127c.224-.061.326-.119.323-.373a.631.631,0,0,1,.64-.663.642.642,0,0,1,.627.679c0,.2.048.292.266.348A4.133,4.133,0,0,1,195,355.474a.4.4,0,0,0,.254.231.683.683,0,0,1,.617.666.65.65,0,0,1-.687.626c-.837.012-1.674.006-2.511.007h-1.755Zm2.748-1.31a2.775,2.775,0,0,0-2.8-2.206c-1.333.041-2.672,1.141-2.676,2.206Z" transform="translate(-182.86 -344.184)"></path><path d="M191.526,399.393q-1.994,0-3.988,0c-.484,0-.771-.241-.777-.633s.294-.66.791-.66q3.988,0,7.975,0c.322,0,.632.074.724.4a.656.656,0,0,1-.7.89c-1.34.02-2.681.01-4.022.01Z" transform="translate(-183.479 -380.966)"></path><path d="M189.374,386.112c.492,0,.984,0,1.476,0a.649.649,0,1,1,0,1.291q-1.476.011-2.952,0a.648.648,0,1,1,0-1.29C188.389,386.107,188.881,386.111,189.374,386.112Z" transform="translate(-183.812 -371.55)"></path></svg>