<svg width="24" height="24" viewBox="0 0 24 24" fill="currentColor"><path d="M541.277,409.564a1.136,1.136,0,0,1,.482-1.084,1.6,1.6,0,0,1,.743-.2c2.474-.014,4.947-.009,7.421-.008a1.1,1.1,0,0,1,1.258,1.165.8.8,0,0,0,.037.128c.325,0,.654,0,.984,0a2.342,2.342,0,0,1,2.4,2.384q.005,7.936-.017,15.872a2.352,2.352,0,0,1-2.485,2.447q-5.892,0-11.784,0a2.361,2.361,0,0,1-2.472-2.46q0-7.867.016-15.735a2.366,2.366,0,0,1,2.527-2.509C540.672,409.563,540.957,409.564,541.277,409.564Zm-.017,1.288c-.286,0-.569,0-.852,0a1.105,1.105,0,0,0-1.255,1.271q-.007,7.8-.011,15.6c0,.861.392,1.25,1.264,1.25h11.58c.936,0,1.312-.375,1.313-1.31q.007-5.429.012-10.858,0-2.405,0-4.811a1,1,0,0,0-.762-1.084,9.069,9.069,0,0,0-1.351-.014c-.076.81-.423,1.23-1.07,1.233q-3.9.014-7.8,0a1.019,1.019,0,0,1-1-.834C541.3,411.163,541.286,411.028,541.26,410.852Zm1.336-.029h7.258V409.6H542.6Z" transform="translate(-537.845 -408.271)"></path><path d="M577.911,483.714c-.721,0-1.443,0-2.164,0-.472,0-.762-.257-.757-.653a.66.66,0,0,1,.74-.64q2.2-.006,4.4,0a.653.653,0,0,1,.737.641c0,.4-.278.65-.754.653C579.377,483.716,578.644,483.714,577.911,483.714Z" transform="translate(-567.03 -466.527)"></path><path d="M577.91,443.62c-.721,0-1.443,0-2.164,0-.47,0-.764-.255-.765-.647s.3-.646.767-.647q2.164,0,4.328,0c.471,0,.765.259.764.651s-.291.641-.767.643C579.353,443.622,578.631,443.62,577.91,443.62Z" transform="translate(-567.023 -435.025)"></path><path d="M577.922,462.431c.732,0,1.464,0,2.2,0,.45,0,.732.254.73.639a.65.65,0,0,1-.734.641q-2.2.008-4.394,0a.647.647,0,0,1-.73-.645c0-.387.281-.633.734-.636C576.457,462.428,577.19,462.431,577.922,462.431Z" transform="translate(-567.031 -450.824)"></path><path d="M552.92,459.608c.505-.509.953-.964,1.406-1.415a.656.656,0,1,1,.913.909q-.869.875-1.745,1.745a.673.673,0,0,1-1.1.01c-.237-.231-.474-.463-.7-.7a.648.648,0,0,1-.018-.923.631.631,0,0,1,.92.008A4.7,4.7,0,0,1,552.92,459.608Z" transform="translate(-548.569 -447.272)"></path><path d="M552.925,479.626c.5-.5.946-.962,1.4-1.415.346-.345.711-.38,1-.107s.255.674-.092,1.023q-.86.866-1.725,1.726a.675.675,0,0,1-1.123.014c-.229-.224-.459-.448-.679-.681a.644.644,0,1,1,.911-.907C552.715,479.371,552.8,479.482,552.925,479.626Z" transform="translate(-548.567 -462.997)"></path><path d="M552.91,438c.538-.539,1.018-1.027,1.505-1.507a.617.617,0,0,1,.786-.116.589.589,0,0,1,.3.7.787.787,0,0,1-.2.347q-.913.932-1.843,1.847a.651.651,0,0,1-1.024,0c-.247-.238-.493-.478-.728-.728a.651.651,0,0,1-.023-.925.642.642,0,0,1,.923.009A3.443,3.443,0,0,1,552.91,438Z" transform="translate(-548.575 -430.282)"></path></svg>