<svg data-v-97523d9e="" fill="currentColor" viewBox="0 0 24 24" width="24" height="24" class="klook-symbol-gray-800"><path fill-rule="evenodd" d="M12 16a4 4 0 110-8 4 4 0 010 8zm0-1.6a2.4 2.4 0 110-4.8 2.4 2.4 0 010 4.8z" clip-rule="evenodd"></path><path fill-rule="evenodd" d="M21.845 10a4 4 0 010 4l-3.19 5.526a4 4 0 01-3.464 2H8.809a4 4 0 01-3.464-2L2.155 14a4 4 0 010-4l3.19-5.526a4 4 0 013.464-2h6.382a4 4 0 013.464 2L21.845 10zm-1.385 3.2l-3.191 5.526a2.4 2.4 0 01-2.078 1.2H8.809a2.4 2.4 0 01-2.078-1.2L3.54 13.2a2.4 2.4 0 010-2.4l3.19-5.526a2.4 2.4 0 012.078-1.2h6.382a2.4 2.4 0 012.078 1.2l3.19 5.526a2.4 2.4 0 010 2.4z" clip-rule="evenodd"></path></svg>